<svg width="125" height="125" viewBox="0 0 125 125" fill="none" xmlns="http://www.w3.org/2000/svg">
<g clip-path="url(#clip0_726_4188)">
<path d="M62.5 125C97.0178 125 125 97.0178 125 62.5C125 27.9822 97.0178 0 62.5 0C27.9822 0 0 27.9822 0 62.5C0 97.0178 27.9822 125 62.5 125Z" fill="#3C81F5" fill-opacity="0.8"/>
<mask id="mask0_726_4188" style="mask-type:luminance" maskUnits="userSpaceOnUse" x="0" y="0" width="125" height="125">
<path d="M62.5 125C97.0178 125 125 97.0178 125 62.5C125 27.9822 97.0178 0 62.5 0C27.9822 0 0 27.9822 0 62.5C0 97.0178 27.9822 125 62.5 125Z" fill="white"/>
</mask>
<g mask="url(#mask0_726_4188)">
<path d="M87.043 102.172C87.043 102.172 95.3605 103.188 99.9637 105.973C104.567 108.759 107.34 116.365 107.34 116.365C107.34 116.365 89.0068 131.02 64.8421 130.042C40.6774 129.065 24.1436 109.563 24.1436 109.563C24.1436 109.563 27.9731 102.301 34.6514 99.0875C38.9694 97.0102 52.1823 96.9094 52.1823 96.9094L87.043 102.172Z" fill="#4D7D80"/>
<path d="M65.8685 95.9415C59.3965 96.1113 52.9569 95.536 47.3596 97.0741C46.2675 105.6 49.549 112.507 59.3975 114.25C69.8851 116.105 83.7746 109.142 90.0129 102.775C80.2888 98.3786 71.8065 95.7854 65.8685 95.9415Z" fill="#D1932A"/>
<path d="M44.4883 43.5773L47.0205 61.9618C47.0205 61.9618 38.7222 82.9968 55.4603 83.1454L52.0271 100.65C51.6226 102.711 52.4549 104.822 54.1325 105.974C55.7141 107.06 58.1755 108.17 61.9313 108.687C68.0321 109.527 75.2696 105.964 78.9434 103.833C80.4219 102.977 81.3593 101.368 81.3917 99.5949L82.0753 61.9629L72.7617 37.7169L44.4883 43.5773Z" fill="#E06F6F"/>
<path d="M55.4591 83.1454C61.3193 82.9479 68.4466 81.2751 72.4784 74.7789C76.6467 76.092 74.4412 84.5614 69.8148 86.5633C68.5436 87.1131 67.4505 88.0026 66.5525 89.0949C61.5782 95.1442 53.291 94.1973 53.291 94.1973L55.4591 83.1454Z" fill="#9E3838"/>
<path d="M54.6634 57.0493C54.6634 58.374 54.0496 59.4482 53.2921 59.4482C52.5347 59.4482 51.9209 58.374 51.9209 57.0493C51.9209 55.7246 52.5347 54.6504 53.2921 54.6504C54.0486 54.6504 54.6634 55.7246 54.6634 57.0493Z" fill="#2A2A2A"/>
<path d="M67.2396 56.9263C67.2396 58.251 66.6257 59.3252 65.8683 59.3252C65.1109 59.3252 64.4971 58.251 64.4971 56.9263C64.4971 55.6015 65.1109 54.5273 65.8683 54.5273C66.6257 54.5263 67.2396 55.6005 67.2396 56.9263Z" fill="#2A2A2A"/>
<path d="M57.2876 55.0548C57.5565 57.0344 55.8101 61.3111 54.72 63.6675C54.4328 64.2885 54.9394 64.9848 55.5866 64.8617L59.397 64.1346" stroke="#612525" stroke-width="0.9662" stroke-miterlimit="10"/>
<path d="M53.7012 68.5291C53.7012 68.5291 60.3825 70.5225 65.8685 64.8384" stroke="#612525" stroke-width="0.9662" stroke-miterlimit="10"/>
<path d="M54.1934 72.6635C54.1934 72.6635 57.7803 71.187 60.3822 72.6635" stroke="#612525" stroke-width="0.9662" stroke-miterlimit="10"/>
<path d="M59.3979 52.3619C60.5932 49.4089 65.7981 46.8253 68.4698 51.4756" stroke="#8F3935" stroke-width="2.1074" stroke-miterlimit="10" stroke-linecap="round" stroke-linejoin="round"/>
<path d="M49.0596 53.174C50.3256 50.1478 54.0531 50.8122 55.389 52.8046" stroke="#8F3935" stroke-width="2.1074" stroke-miterlimit="10" stroke-linecap="round" stroke-linejoin="round"/>
<path d="M77.7038 57.9495C77.7038 57.9495 71.1489 51.9289 70.6028 42.7557C66.2333 50.2093 54.7617 44.1887 54.7617 44.1887C54.7617 44.1887 47.6607 49.0619 43.0171 44.1887C37.2813 47.3423 31.407 40.3303 34.9231 34.4243C27.0465 25.5653 40.0552 3.76607 55.602 18.3867C71.1661 12.7694 75.2455 28.4207 75.2455 28.4207C75.2455 28.4207 90.5406 31.5743 88.6283 43.0413C86.716 54.5082 82.0734 61.9629 82.0734 61.9629L77.7038 57.9495Z" fill="#8F3935"/>
<path d="M86.4893 62.4554C85.1373 65.6621 82.0641 67.3424 79.625 66.2088C77.1859 65.0751 76.3051 61.5574 77.6571 58.3518C79.0091 55.1451 82.0823 53.4648 84.5214 54.5985C86.9606 55.7311 87.8413 59.2488 86.4893 62.4554Z" fill="#E06F6F"/>
<path d="M78.8555 61.0978C79.6999 57.7511 84.482 55.4763 84.9502 60.4037" stroke="#9E3838" stroke-width="0.9662" stroke-miterlimit="10"/>
</g>
</g>
<defs>
<clipPath id="clip0_726_4188">
<rect width="125" height="125" fill="white"/>
</clipPath>
</defs>
</svg>
