<svg width="125" height="125" viewBox="0 0 125 125" fill="none" xmlns="http://www.w3.org/2000/svg">
<g clip-path="url(#clip0_726_4215)">
<path d="M62.5 125C97.0178 125 125 97.0178 125 62.5C125 27.9822 97.0178 0 62.5 0C27.9822 0 0 27.9822 0 62.5C0 97.0178 27.9822 125 62.5 125Z" fill="#3C81F5" fill-opacity="0.8"/>
<mask id="mask0_726_4215" style="mask-type:luminance" maskUnits="userSpaceOnUse" x="0" y="0" width="125" height="125">
<path d="M62.5 125C97.0178 125 125 97.0178 125 62.5C125 27.9822 97.0178 0 62.5 0C27.9822 0 0 27.9822 0 62.5C0 97.0178 27.9822 125 62.5 125Z" fill="white"/>
</mask>
<g mask="url(#mask0_726_4215)">
<path d="M83.2755 47.7548C83.2755 47.7548 86.2811 57.7207 76.4858 61.6983C76.4858 61.6983 76.6435 66.3632 70.8855 68.1257C65.1283 69.889 35.8522 52.1937 35.8522 52.1937C35.8522 52.1937 32.5933 39.2947 38.2883 31.1688C43.9832 23.043 53.5483 21.3734 65.1283 24.1565C76.7083 26.9405 84.2126 38.7012 83.2755 47.7548Z" fill="#302922"/>
<path d="M13.1067 125H112C112 125 109.654 98.4438 98.9253 90.7298C91.8039 85.6181 82.0017 82.5877 76.2198 81.1382C73.29 80.3981 71.3886 80.063 71.3886 80.063L49.517 80.9898C49.517 80.9898 47.4911 81.3641 44.4838 82.2057C39.8862 83.4915 32.9907 85.8756 27.5209 89.7245C18.4674 96.099 13.1067 125 13.1067 125Z" fill="#333E67"/>
<path d="M44.471 82.2056C45.7722 84.4421 49.3482 88.2288 58.6601 88.3848C69.8027 88.5716 74.8828 82.9304 76.207 81.1389C73.2773 80.3988 71.3758 80.0637 71.3758 80.0637L49.5043 80.9906C49.5043 80.9906 47.4792 81.364 44.471 82.2056Z" fill="#4D7D80"/>
<path d="M49.2871 75.4723L49.5207 80.9907C50.1884 81.4844 50.8603 81.9107 51.5322 82.2765C61.3574 87.6253 71.3923 80.0647 71.3923 80.0647L70.5823 60.9327L51.8272 73.7388L49.2871 75.4723Z" fill="#E69680"/>
<path d="M49.287 75.4724L49.5206 80.9908C50.1882 81.4845 50.8601 81.9108 51.532 82.2766C59.5539 78.7014 65.1294 69.89 65.1294 69.89L51.827 73.7389L49.287 75.4724Z" fill="#302922"/>
<path d="M41.3552 51.3104C41.3552 51.3104 38.0648 47.7403 36.4498 51.5176C34.8349 55.2949 36.5147 62.7318 41.2324 61.3036L41.3552 51.3104Z" fill="#E06C5C"/>
<path d="M38.2899 40.5431L38.4298 52.5034L38.4613 55.4331L38.469 55.9626C38.469 55.9626 38.469 55.9703 38.469 55.9933L38.5628 64.4321C38.5628 64.4321 39.03 75.8467 50.8974 75.3172C55.5333 75.1066 59.5229 73.5019 62.6863 71.5927C67.5797 68.663 70.4856 65.0162 70.7354 64.7433C70.7354 64.7357 70.7431 64.7357 70.7431 64.7357L70.7746 62.3277L70.9144 49.861L70.992 43.1915C70.992 43.1915 71.9896 31.1536 60.512 29.4466C52.1278 28.2077 44.3907 29.9138 40.6433 34.4176C40.5188 34.566 40.402 34.7135 40.2928 34.8695C39.1153 36.4452 38.4068 38.3381 38.2899 40.5431Z" fill="#E69680"/>
<path d="M47.5133 61.6924C48.0351 61.7163 48.6209 61.6728 49.2724 61.5313C52.6429 60.798 54.8871 57.7855 54.9801 57.6576C55.1233 57.4624 55.0815 57.1878 54.8863 57.0437C54.691 56.8996 54.4165 56.9414 54.2724 57.1375C54.251 57.1657 52.1254 60.011 49.0848 60.6726C46.074 61.3283 44.7746 59.5463 44.7618 59.5284C44.6211 59.3297 44.3474 59.2828 44.1496 59.4226C43.9509 59.5625 43.904 59.837 44.0438 60.0349C44.0984 60.1116 45.1702 61.5841 47.5133 61.6924Z" fill="#302922"/>
<path d="M47.0344 64.2879C46.8101 64.166 46.6762 64.0714 46.6549 64.056C46.3949 63.8685 46.336 63.5052 46.5236 63.2443C46.7104 62.9842 47.0719 62.9228 47.3336 63.1121C47.4104 63.1667 49.131 64.3562 51.0231 63.3824C51.3087 63.2358 51.6592 63.3475 51.8058 63.6331C51.9525 63.9188 51.8408 64.2692 51.5552 64.4159C49.5932 65.4246 47.7949 64.7006 47.0344 64.2879Z" fill="#E06C5C"/>
<path d="M46.5281 56.3241C47.5948 56.1391 48.7604 55.7153 49.4135 55.4569C49.654 55.3614 49.7716 55.0886 49.677 54.8481C49.5815 54.6068 49.3053 54.4875 49.0682 54.5847C47.3015 55.2847 45.3736 55.682 45.0991 55.4024C45.1016 55.4024 45.0965 55.3623 45.1144 55.2873C46.0106 51.3428 48.0288 50.8671 48.0493 50.8628C48.271 50.8159 48.433 50.6147 48.4262 50.3887L48.3136 46.7325C48.3059 46.4733 48.0894 46.2704 47.8302 46.278C47.5778 46.2857 47.3672 46.5023 47.3757 46.7615L47.478 50.0724C46.7055 50.4015 45.0095 51.5151 44.1987 55.0801C44.0682 55.6539 44.3249 55.9753 44.4886 56.116C44.9013 56.4682 45.6831 56.4707 46.5281 56.3241Z" fill="#302922"/>
<path d="M59.9058 42.6015C59.3601 43.9606 57.827 44.6342 56.4585 44.1124C55.6587 43.808 54.719 43.5155 53.7342 43.3441C52.3376 43.1011 51.4235 41.7462 51.7398 40.3641C51.7398 40.3641 57.2429 39.624 59.9058 42.6015Z" fill="#302922"/>
<path d="M38.4469 43.5103C39.1051 44.8183 40.6894 45.3597 42.0093 44.7245C42.7801 44.3536 43.6916 43.9827 44.6594 43.7286C46.0305 43.3687 46.8268 41.9414 46.3945 40.5908C46.3945 40.5908 40.848 40.3179 38.4469 43.5103Z" fill="#302922"/>
<path d="M55.0705 48.6621C55.1191 49.8029 55.6751 50.7059 56.3137 50.6786C56.9524 50.6513 57.4307 49.7049 57.3821 48.564C57.3335 47.4232 56.7776 46.5202 56.1389 46.5475C55.5003 46.5748 55.0219 47.5212 55.0705 48.6621Z" fill="#302922"/>
<path d="M43.7837 49.1405C43.8314 50.2813 44.3882 51.1843 45.0269 51.157C45.6655 51.1306 46.1438 50.1833 46.0952 49.0424C46.0466 47.9016 45.4898 46.9986 44.852 47.0259C44.2134 47.0532 43.7359 47.9996 43.7837 49.1405Z" fill="#302922"/>
<path d="M66.821 60.2761C66.8807 60.4006 68.5297 63.8198 70.7322 64.7483C70.739 64.7407 70.7432 64.7355 70.7432 64.7355L70.7705 62.3327C70.7705 62.3327 68.8827 62.0914 66.821 60.2761Z" fill="#302922"/>
<path d="M68.574 52.2646C68.574 52.2646 72.8757 45.9447 76.4219 50.6172C79.344 54.4679 74.5751 65.0281 68.9748 61.7163L68.574 52.2646Z" fill="#E69680"/>
<path d="M69.5205 59.8448C69.5035 59.8456 69.4864 59.8456 69.4685 59.8439C69.2093 59.826 69.0141 59.6026 69.0311 59.3434C69.3807 54.1089 73.6892 52.118 73.8725 52.0361C74.1096 51.9296 74.3875 52.0361 74.4933 52.2723C74.599 52.5085 74.4941 52.7865 74.2579 52.893C74.0959 52.9664 70.2803 54.7476 69.969 59.4065C69.952 59.6487 69.7567 59.8354 69.5205 59.8448Z" fill="#302922"/>
<path d="M73.7796 56.8143C73.6756 56.8185 73.5698 56.7887 73.4794 56.7222C73.0574 56.4084 71.7852 55.6487 70.9846 55.89C70.7356 55.965 70.4738 55.8243 70.3988 55.5762C70.3237 55.3281 70.4644 55.0663 70.7126 54.9913C72.1067 54.5709 73.8461 55.8252 74.0397 55.9701C74.2477 56.1253 74.2903 56.4195 74.1352 56.6275C74.049 56.7435 73.916 56.8083 73.7796 56.8143Z" fill="#302922"/>
<path opacity="0.38" d="M38.4693 55.9941L38.5631 64.4329C38.5631 64.4329 39.0303 75.8474 50.8976 75.3179C55.5336 75.1073 61.6199 72.1264 64.7832 70.2173C68.0088 65.5814 67.0078 56.2763 67.3037 53.8215L65.1328 51.9968C65.1328 51.9968 65.0083 59.0799 62.5535 59.843C60.0987 60.6147 58.9229 56.2593 54.1693 55.8611C49.4166 55.4561 43.7362 55.775 41.9831 56.8118C40.23 57.8563 40.9386 59.9905 39.7235 59.843C38.5699 59.7032 38.4769 56.3531 38.4693 55.9941Z" fill="#302922"/>
<path d="M70.9148 49.8592C70.9148 49.8592 68.4719 52.9868 67.6934 52.8759C66.9141 52.7642 65.9122 51.4895 65.5788 50.6795C65.2446 49.8703 68.2468 44.9905 68.2468 44.9905C68.2468 44.9905 62.5732 39.7415 61.683 33.9528C61.683 33.9528 58.2826 34.9547 51.6779 35.0655C45.0732 35.1772 38.6049 34.7313 38.6049 34.7313C38.6049 34.7313 43.1615 26.0487 57.2082 27.1622C71.255 28.275 74.5352 36.8459 74.5352 36.8459V43.8582L70.9148 49.8592Z" fill="#302922"/>
<path d="M65.6885 25.3819C65.6885 25.3819 65.8002 14.2505 75.8181 13.1377C85.836 12.0242 92.96 26.7172 85.9477 32.1717C78.9354 37.6262 74.2296 36.215 74.2296 36.215L65.6885 25.3819Z" fill="#302922"/>
<path d="M55.2963 55.3187C58.9534 55.6888 62.2293 53.0157 62.5993 49.3578C62.9694 45.7016 60.2954 42.4256 56.6384 42.0556C52.9813 41.6855 49.7054 44.3586 49.3353 48.0157C48.9653 51.6727 51.6392 54.9487 55.2963 55.3187ZM56.5395 43.0344C59.6568 43.3499 61.936 46.1424 61.6205 49.2589C61.305 52.3762 58.5125 54.6554 55.3952 54.3399C52.2779 54.0244 49.9987 51.2319 50.3142 48.1146C50.6297 44.9981 53.4221 42.719 56.5395 43.0344Z" fill="#FDFEFF"/>
<path d="M39.9257 55.7349C43.5827 56.1049 46.8587 53.431 47.2287 49.7739C47.5988 46.1177 44.9248 42.8418 41.2678 42.4717C37.6107 42.1017 34.3348 44.7756 33.9647 48.4318C33.5947 52.0889 36.2686 55.3648 39.9257 55.7349ZM41.1689 43.4506C44.2862 43.7661 46.5653 46.5585 46.2499 49.675C45.9344 52.7923 43.1419 55.0715 40.0246 54.756C36.9073 54.4405 34.6281 51.6481 34.9436 48.5307C35.2591 45.4151 38.0515 43.1359 41.1689 43.4506Z" fill="#FDFEFF"/>
<path d="M47.1316 49.6076C48.1215 48.5102 49.2897 49.3595 49.421 49.461L50.0281 48.6867C49.3451 48.1453 47.7046 47.5024 46.4009 48.9485L47.1316 49.6076Z" fill="#FDFEFF"/>
<path d="M62.7297 49.2436C62.9079 49.3391 63.1202 49.3681 63.3052 49.3067C63.3914 49.2896 64.7386 49.0654 69.337 50.7869C69.69 50.9191 70.0524 50.7818 70.1444 50.4791C70.2399 50.1764 70.0225 49.8166 69.6746 49.6929C64.383 47.7105 62.9028 48.0917 62.6589 48.188C62.3452 48.3125 62.2437 48.6612 62.4313 48.9665C62.5046 49.085 62.6086 49.1788 62.7297 49.2436Z" fill="#FDFEFF"/>
<path d="M34.1802 48.4856C34.2834 48.5504 34.4053 48.5879 34.5332 48.5836C35.5803 48.5555 37.1526 49.2922 37.671 49.5795C37.9609 49.7398 38.3156 49.6486 38.464 49.3766C38.6115 49.1038 38.4998 48.7508 38.2056 48.5922C38.1169 48.5436 36.0228 47.3959 34.4283 47.4402C34.1035 47.4487 33.8647 47.7122 33.8946 48.0285C33.9125 48.2195 34.0233 48.3858 34.1802 48.4856Z" fill="#FDFEFF"/>
</g>
</g>
<defs>
<clipPath id="clip0_726_4215">
<rect width="125" height="125" fill="white"/>
</clipPath>
</defs>
</svg>
