<svg width="125" height="125" viewBox="0 0 125 125" fill="none" xmlns="http://www.w3.org/2000/svg">
<g clip-path="url(#clip0_726_4205)">
<path d="M62.5 125C97.0178 125 125 97.0178 125 62.5C125 27.9822 97.0178 0 62.5 0C27.9822 0 0 27.9822 0 62.5C0 97.0178 27.9822 125 62.5 125Z" fill="#3C81F5" fill-opacity="0.8"/>
<mask id="mask0_726_4205" style="mask-type:luminance" maskUnits="userSpaceOnUse" x="0" y="0" width="125" height="125">
<path d="M62.5 125C97.0178 125 125 97.0178 125 62.5C125 27.9822 97.0178 0 62.5 0C27.9822 0 0 27.9822 0 62.5C0 97.0178 27.9822 125 62.5 125Z" fill="white"/>
</mask>
<g mask="url(#mask0_726_4205)">
<path d="M88.2455 37.5429C88.2455 37.5429 94.3008 56.1726 82.6392 67.3021L75.0508 36.3976L88.2455 37.5429Z" fill="#312A45"/>
<path d="M107.614 114.463C107.614 114.463 90.824 127.885 68.1913 128.181C68.1913 128.181 68.1913 128.181 68.1812 128.181C67.178 128.192 66.1556 128.181 65.1232 128.14C56.1443 127.772 48.2162 124.859 41.8089 121.332C41.7988 121.321 40.922 122.636 40.9119 122.626C30.0724 116.665 23.3203 111.194 23.3203 111.194C23.3203 111.194 28.2522 100.396 34.9335 97.1866C39.2474 95.1008 52.4634 95.0095 52.4634 95.0095L87.319 100.264C87.319 100.264 95.6365 101.286 100.243 104.066C104.848 106.858 107.614 114.463 107.614 114.463Z" fill="#4D7D80"/>
<path d="M40.9121 35.7406L43.7224 56.1514C43.7224 56.1514 34.5089 79.5047 53.0915 79.6682L49.2802 99.1014C48.8312 101.39 49.7544 103.733 51.6171 105.012C53.3727 106.217 56.1061 107.45 60.2744 108.024C67.0467 108.956 75.0821 105 79.1614 102.635C80.8027 101.683 81.8433 99.8975 81.8797 97.9285L82.6381 56.1493L72.2991 29.2349L40.9121 35.7406Z" fill="#E06F6F"/>
<path d="M53.0918 79.6691C59.5981 79.4505 67.5101 77.5929 71.9869 70.3813C76.6144 71.8387 74.1661 81.2422 69.03 83.4639C67.6193 84.0742 66.4058 85.0614 65.4088 86.2747C59.8863 92.9905 50.686 91.9397 50.686 91.9397L53.0918 79.6691Z" fill="#9E3838"/>
<path d="M52.208 50.6975C52.208 52.1687 51.5264 53.3607 50.685 53.3607C49.8447 53.3607 49.1621 52.1687 49.1621 50.6975C49.1621 49.2263 49.8437 48.0343 50.685 48.0343C51.5264 48.0343 52.208 49.2263 52.208 50.6975Z" fill="#2A2A2A"/>
<path d="M66.1699 50.5597C66.1699 52.0309 65.4883 53.2229 64.647 53.2229C63.8056 53.2229 63.124 52.0309 63.124 50.5597C63.124 49.0885 63.8056 47.8965 64.647 47.8965C65.4883 47.8965 66.1699 49.0885 66.1699 50.5597Z" fill="#2A2A2A"/>
<path d="M55.1225 48.4834C55.4218 50.6817 53.4822 55.4296 52.2728 58.0451C51.9543 58.735 52.5175 59.5078 53.2355 59.3708L57.4655 58.5641" stroke="#612525" stroke-width="0.9662" stroke-miterlimit="10"/>
<path d="M51.1396 65.3553C51.1396 65.3553 58.5571 67.5685 64.6469 61.2581" stroke="#612525" stroke-width="0.9662" stroke-miterlimit="10"/>
<path d="M51.687 71.1095C51.687 71.1095 55.6693 69.4706 58.5574 71.1095" stroke="#612525" stroke-width="0.9662" stroke-miterlimit="10"/>
<path d="M57.4639 45.4932C58.7916 42.2154 64.5689 39.3463 67.5359 44.5092" stroke="#312A45" stroke-width="2.1074" stroke-miterlimit="10" stroke-linecap="round" stroke-linejoin="round"/>
<path d="M45.9868 46.3954C47.3924 43.0359 51.5305 43.7725 53.014 45.9857" stroke="#312A45" stroke-width="2.1074" stroke-miterlimit="10" stroke-linecap="round" stroke-linejoin="round"/>
<path d="M87.5417 56.698C86.041 60.2571 82.6291 62.1232 79.921 60.8653C77.2129 59.6075 76.235 55.7024 77.7367 52.1422C79.2374 48.5832 82.6493 46.7171 85.3575 47.9749C88.0646 49.2338 89.0424 53.139 87.5417 56.698Z" fill="#E06F6F"/>
<path d="M79.0654 55.1918C80.0018 51.4766 85.3119 48.9514 85.8327 54.4211" stroke="#9E3838" stroke-width="0.9662" stroke-miterlimit="10"/>
<path d="M40.9121 25.2766C40.9121 25.2766 42.4947 9.79734 53.0137 7.60648C63.5326 5.41562 78.1411 12.2801 83.5674 17.8294C88.9938 23.3788 88.2455 37.544 88.2455 37.544L40.9121 35.7416V25.2766Z" fill="#333E67"/>
<path d="M40.9121 31.1508C40.9121 31.1508 21.0998 33.5996 19.4302 35.9358C17.7606 38.2721 75.2267 39.2349 77.867 37.147C80.5064 35.0601 55.1029 29.6913 40.9121 31.1508Z" fill="#4D7D80"/>
<path d="M53.0138 60.0321C53.0138 60.0321 51.1511 60.1053 49.8991 61.9311C48.6472 63.7568 48.7261 64.779 48.7261 64.779L67.2197 61.9311C67.2197 61.9311 64.1334 57.1524 53.0138 60.0321Z" fill="#312A45"/>
<path d="M68.1916 128.181C68.1916 128.181 68.1916 128.181 68.1815 128.181C67.1784 128.192 66.156 128.181 65.1235 128.14C56.1447 127.771 48.2165 124.859 41.8093 121.332C41.7991 121.321 41.7991 121.321 41.79 121.311C41.79 121.311 50.5232 108.925 52.8217 105.705L66.0205 108.165L68.1916 128.181Z" fill="#D1932A"/>
<path d="M82.0358 89.3857L65.4463 108.165L71.081 117.644L91.4535 101.461L82.0358 89.3857Z" fill="#312A45"/>
<path d="M51.1399 89.3857L53.2686 105.982L44.0996 110.414V96.1759L51.1399 89.3857Z" fill="#312A45"/>
</g>
</g>
<defs>
<clipPath id="clip0_726_4205">
<rect width="125" height="125" fill="white"/>
</clipPath>
</defs>
</svg>
