<svg width="125" height="125" viewBox="0 0 125 125" fill="none" xmlns="http://www.w3.org/2000/svg">
<g clip-path="url(#clip0_726_4213)">
<path d="M62.5 125C97.0178 125 125 97.0178 125 62.5C125 27.9822 97.0178 0 62.5 0C27.9822 0 0 27.9822 0 62.5C0 97.0178 27.9822 125 62.5 125Z" fill="#3C81F5" fill-opacity="0.8"/>
<mask id="mask0_726_4213" style="mask-type:luminance" maskUnits="userSpaceOnUse" x="0" y="0" width="125" height="125">
<path d="M62.5 125C97.0178 125 125 97.0178 125 62.5C125 27.9822 97.0178 0 62.5 0C27.9822 0 0 27.9822 0 62.5C0 97.0178 27.9822 125 62.5 125Z" fill="white"/>
</mask>
<g mask="url(#mask0_726_4213)">
<path d="M7.74404 124.999H116C116 124.999 113.433 98.9522 101.689 90.5086C94.6694 85.4681 85.2618 82.2783 78.8396 80.5386C74.5152 79.3533 71.5475 78.8326 71.5475 78.8326L47.6073 79.8473C47.6073 79.8473 44.8094 80.3591 40.8351 81.5364C35.854 83.0122 29.0311 85.5365 23.5303 89.4086C13.6207 96.3853 7.74404 124.999 7.74404 124.999Z" fill="#4D7D80"/>
<path d="M47.353 73.8082L47.6089 79.8483C48.3392 80.3894 49.0749 80.8559 49.8106 81.2557C60.5652 87.1102 71.5491 78.8345 71.5491 78.8345L70.6623 57.8931L50.1332 71.9112L47.353 73.8082Z" fill="#E69680"/>
<path d="M47.3529 73.8082L47.6088 79.8484C48.3392 80.3895 49.0749 80.8559 49.8105 81.2558C58.5909 77.3427 64.6941 67.697 64.6941 67.697L50.1331 71.9103L47.3529 73.8082Z" fill="#302922"/>
<path d="M38.6716 47.3606C38.6716 47.3606 35.0696 43.4529 33.3023 47.5881C31.5351 51.7232 33.3734 59.8629 38.5375 58.3L38.6716 47.3606Z" fill="#E06C5C"/>
<path d="M34.276 30.3117C34.276 30.3117 30.3532 31.8914 32.2582 36.3545C34.1641 40.8175 34.0281 41.7424 33.527 44.535C33.0259 47.3276 35.3387 49.4956 36.1339 49.1873C36.9291 48.8781 43.721 27.9935 34.276 30.3117Z" fill="#302922"/>
<path d="M35.615 61.7279C35.615 61.7279 36.1259 74.2159 49.1133 73.6375C62.0208 73.0662 70.3879 62.5568 70.826 62.0682C70.8331 62.0602 70.8393 62.0557 70.8393 62.0557L70.8695 59.4248L71.0268 45.7719L71.1112 38.4745C71.1112 38.4745 72.205 25.2943 59.644 23.4319C50.4674 22.0698 41.9945 23.9437 37.8887 28.875C37.7563 29.034 37.6274 29.1966 37.5075 29.3637C36.2218 31.09 35.4453 33.1621 35.3146 35.5726L35.4657 48.6676L35.5021 51.8769L35.615 61.7279Z" fill="#E69680"/>
<path d="M45.4119 58.7246C45.9832 58.7513 46.6239 58.7033 47.3373 58.5487C51.0273 57.7455 53.4832 54.4482 53.5854 54.3078C53.7426 54.0937 53.6964 53.7934 53.4823 53.6361C53.2682 53.4788 52.9679 53.525 52.8106 53.7383C52.7875 53.7694 50.4605 56.8836 47.133 57.6087C43.8366 58.3257 42.415 56.3763 42.4007 56.3559C42.247 56.1382 41.9476 56.0875 41.7308 56.2404C41.514 56.3932 41.4625 56.6935 41.6153 56.9103C41.6748 56.9938 42.8477 58.6056 45.4119 58.7246Z" fill="#302922"/>
<path d="M44.8875 61.5652C44.6423 61.4319 44.4957 61.3279 44.4717 61.3111C44.1865 61.1058 44.1225 60.7078 44.3278 60.4225C44.5321 60.1382 44.9275 60.0707 45.2136 60.2777C45.298 60.3373 47.1817 61.6398 49.2519 60.5736C49.5647 60.4128 49.9476 60.5354 50.1085 60.8482C50.2693 61.1609 50.1467 61.5438 49.8339 61.7047C47.689 62.81 45.7201 62.0174 44.8875 61.5652Z" fill="#E06C5C"/>
<path d="M44.3348 52.848C45.5023 52.6454 46.7782 52.1816 47.4935 51.8982C47.7565 51.7933 47.8853 51.4957 47.7814 51.2318C47.6765 50.9679 47.3744 50.8373 47.115 50.9439C45.1816 51.7098 43.0705 52.1452 42.7701 51.8386C42.7728 51.8386 42.7675 51.7951 42.787 51.7125C43.7679 47.3952 45.9777 46.8745 45.9999 46.8692C46.2425 46.8177 46.4202 46.5982 46.4122 46.3503L46.2887 42.3475C46.2798 42.0641 46.0434 41.8419 45.76 41.8499C45.4837 41.8588 45.2536 42.0952 45.2633 42.3786L45.3753 46.002C44.5303 46.3627 42.6733 47.5809 41.7866 51.4832C41.6444 52.1114 41.9243 52.4633 42.1038 52.617C42.5534 53.0062 43.4099 53.0088 44.3348 52.848Z" fill="#302922"/>
<path d="M58.9768 37.8267C58.3797 39.315 56.7013 40.0516 55.2033 39.4811C54.3281 39.1479 53.2992 38.8272 52.2214 38.6406C50.6923 38.3749 49.6918 36.8911 50.0392 35.3788C50.0392 35.3788 56.0625 34.5685 58.9768 37.8267Z" fill="#302922"/>
<path d="M35.4881 38.8219C36.2087 40.2542 37.9431 40.8459 39.3878 40.1511C40.231 39.7451 41.2297 39.339 42.2879 39.0609C43.7886 38.6673 44.6602 37.1044 44.1867 35.6259C44.1867 35.6259 38.1172 35.3282 35.4881 38.8219Z" fill="#302922"/>
<path d="M54.4772 44.4614C54.5306 45.7098 55.1392 46.6987 55.8385 46.6684C56.5368 46.6391 57.0611 45.6031 57.0077 44.3539C56.9544 43.1055 56.3458 42.1166 55.6465 42.1468C54.9473 42.177 54.4239 43.213 54.4772 44.4614Z" fill="#302922"/>
<path d="M41.3297 44.9847C41.383 46.2331 41.9916 47.222 42.6909 47.1918C43.3892 47.1625 43.9126 46.1264 43.8602 44.8772C43.8068 43.6288 43.1982 42.6399 42.4989 42.6701C41.8006 42.7003 41.2772 43.7363 41.3297 44.9847Z" fill="#302922"/>
<path d="M66.546 57.1732C66.6109 57.3092 68.4163 61.0525 70.8269 62.0681C70.834 62.0601 70.8393 62.0547 70.8393 62.0547L70.8687 59.4247C70.8687 59.4247 68.8029 59.1617 66.546 57.1732Z" fill="#302922"/>
<path d="M68.4662 48.4046C68.4662 48.4046 73.1753 41.4866 77.0555 46.6018C80.2541 50.8169 75.0341 62.3757 68.9042 58.7505L68.4662 48.4046Z" fill="#E69680"/>
<path d="M69.5012 56.7024C69.4825 56.7033 69.4639 56.7024 69.4452 56.7015C69.1618 56.6829 68.9477 56.4376 68.9663 56.1542C69.3484 50.4241 74.0646 48.2455 74.2654 48.1558C74.5249 48.0394 74.8288 48.1558 74.9451 48.4152C75.0615 48.6738 74.946 48.9776 74.6875 49.094C74.5098 49.1749 70.3329 51.1243 69.9926 56.2235C69.9739 56.4874 69.7598 56.6917 69.5012 56.7024Z" fill="#302922"/>
<path d="M74.1631 53.3846C74.0494 53.3891 73.933 53.3571 73.8344 53.2833C73.3723 52.9404 71.98 52.1078 71.104 52.3717C70.8321 52.4535 70.5451 52.2998 70.4633 52.0279C70.3816 51.756 70.5353 51.469 70.8072 51.3872C72.3337 50.927 74.2369 52.2997 74.4492 52.4588C74.6767 52.6285 74.7238 52.9501 74.5541 53.1785C74.4572 53.3073 74.3124 53.3784 74.1631 53.3846Z" fill="#302922"/>
<path d="M61.8037 33.7778C61.8037 33.7778 61.9868 36.3412 63.3568 39.674C64.7278 43.0069 66.8292 42.926 66.9207 44.9314C67.0122 46.9368 65.986 49.4957 66.5448 49.7694C67.1037 50.0439 67.8341 50.3176 67.8341 50.3176C67.8341 50.3176 70.3877 46.1771 71.0256 45.7719C71.6627 45.3659 72.975 44.4649 74.0484 44.7253C74.0484 44.7253 75.9693 44.5742 77.5216 47.4006C77.5216 47.4006 78.8943 45.4396 78.0245 42.6701C77.1546 39.9006 75.8174 40.8229 75.892 38.0312C75.9667 35.2403 75.7836 34.7828 75.7836 34.7828L61.8037 33.7778Z" fill="#302922"/>
<path d="M62.7414 33.7218C62.7414 33.7218 75.2375 35.2394 75.7857 34.7827C76.3339 34.326 74.8723 21.5323 69.6629 17.4202C64.4545 13.3082 51.8748 12.5769 43.864 15.2274C35.8522 17.8778 34.2947 29.4063 34.2947 29.4063L62.7414 33.7218Z" fill="#9E3838"/>
<path d="M63.9516 33.7779C63.9516 33.7779 55.8892 37.7985 50.8513 37.9664C45.8125 38.1334 39.9643 34.3252 34.2378 35.6198C28.5113 36.9153 27.5366 38.7732 25.8307 37.9664C24.1247 37.1587 32.7842 28.597 39.3592 27.3948C45.9351 26.1935 66.2031 32.55 63.9516 33.7779Z" fill="#FFF4E6"/>
<path d="M73.1047 74.4763C73.1047 74.4763 70.0509 75.9166 64.694 82.2464C59.3372 88.5762 59.4518 97.7137 59.4518 97.7137L78.8525 80.5342C78.8525 80.5342 76.1506 75.7282 73.1047 74.4763Z" fill="#FFF4E6"/>
<path d="M59.4539 97.7162V125H116C116 125 113.433 98.9531 101.689 90.5095C94.6694 85.4689 85.2618 82.2791 78.8396 80.5394L59.4539 97.7162Z" fill="#312A45"/>
<path d="M47.5664 78.8326L48.1279 96.738C48.1279 96.738 40.9825 89.1208 40.8394 81.5373C40.8394 81.5373 43.1816 75.4136 47.4216 75.4154L47.5664 78.8326Z" fill="#FFF4E6"/>
<path d="M7.74397 124.999H46.422C46.908 116.095 48.1279 96.7345 48.1279 96.7345L40.8359 81.5364C35.8549 83.0122 29.0319 85.5365 23.5311 89.4086C13.6206 96.3852 7.74397 124.999 7.74397 124.999Z" fill="#312A45"/>
</g>
</g>
<defs>
<clipPath id="clip0_726_4213">
<rect width="125" height="125" fill="white"/>
</clipPath>
</defs>
</svg>
