<svg width="125" height="125" viewBox="0 0 125 125" fill="none" xmlns="http://www.w3.org/2000/svg">
<g clip-path="url(#clip0_726_4209)">
<path d="M62.5 125C97.0178 125 125 97.0178 125 62.5C125 27.9822 97.0178 0 62.5 0C27.9822 0 0 27.9822 0 62.5C0 97.0178 27.9822 125 62.5 125Z" fill="#3C81F5" fill-opacity="0.8"/>
<mask id="mask0_726_4209" style="mask-type:luminance" maskUnits="userSpaceOnUse" x="0" y="0" width="125" height="125">
<path d="M62.5 125C97.0178 125 125 97.0178 125 62.5C125 27.9822 97.0178 0 62.5 0C27.9822 0 0 27.9822 0 62.5C0 97.0178 27.9822 125 62.5 125Z" fill="white"/>
</mask>
<g mask="url(#mask0_726_4209)">
<path d="M57.6975 17.5874C57.6975 17.5874 69.1711 13.3936 79.9004 21.3015C90.6297 29.2094 92.1132 39.2731 92.456 48.977C92.7988 58.682 92.7988 58.682 92.7988 58.682C92.7988 58.682 97.8207 60.4811 98.8481 69.5853C99.8755 78.6895 94.5109 80.8464 97.935 84.2006C101.359 87.5548 103.641 99.215 95.424 102.91C87.2056 106.605 72.1391 100.854 72.1391 100.854L57.6975 17.5874Z" fill="#312A45"/>
<path d="M87.5141 99.5515C87.5141 99.5515 96.6122 100.663 101.648 103.709C106.684 106.756 109.717 115.076 109.717 115.076C109.717 115.076 89.6629 131.107 63.23 130.038C36.7971 128.969 18.71 107.637 18.71 107.637C18.71 107.637 22.8996 99.6916 30.2048 96.1781C34.9283 93.9056 49.381 93.7952 49.381 93.7952L87.5141 99.5515Z" fill="#4D7D80"/>
<path d="M64.3516 92.7346C57.2718 92.9215 50.2275 92.2909 44.1054 93.9734C42.9101 103.298 46.5011 110.855 57.2738 112.761C68.7464 114.792 83.9394 107.174 90.7643 100.209C80.126 95.4021 70.8478 92.5648 64.3516 92.7346Z" fill="#D1932A"/>
<path d="M40.9646 35.4549L43.7344 55.5665C43.7344 55.5665 34.6565 78.5769 52.9661 78.7382L49.2103 97.8859C48.7684 100.14 49.6775 102.449 51.5129 103.71C53.2431 104.898 55.9361 106.113 60.0427 106.678C66.7159 107.596 74.633 103.699 78.6527 101.369C80.2697 100.431 81.2951 98.6704 81.3305 96.7321L82.0778 55.5665L71.8905 29.0437L40.9646 35.4549Z" fill="#E06F6F"/>
<path d="M52.9659 78.7381C59.3771 78.5226 67.1728 76.6927 71.5829 69.5862C76.1426 71.0223 73.7297 80.2879 68.6695 82.4766C67.279 83.0784 66.0837 84.0507 65.1018 85.2459C59.6613 91.8631 50.5945 90.8271 50.5945 90.8271L52.9659 78.7381Z" fill="#9E3838"/>
<path d="M52.0953 50.1924C52.0953 51.6423 51.4238 52.8163 50.5956 52.8163C49.7674 52.8163 49.0959 51.6413 49.0959 50.1924C49.0959 48.7435 49.7674 47.5674 50.5956 47.5674C51.4238 47.5684 52.0953 48.7435 52.0953 50.1924Z" fill="#2A2A2A"/>
<path d="M65.8524 50.0564C65.8524 51.5053 65.1809 52.6803 64.3527 52.6803C63.5245 52.6803 62.853 51.5053 62.853 50.0564C62.853 48.6064 63.5245 47.4314 64.3527 47.4314C65.1809 47.4325 65.8524 48.6075 65.8524 50.0564Z" fill="#2A2A2A"/>
<path d="M54.9664 48.011C55.2617 50.1764 53.3505 54.8553 52.1582 57.4325C51.8437 58.1119 52.3989 58.874 53.1067 58.7392L57.2741 57.9441" stroke="#612525" stroke-width="0.9662" stroke-miterlimit="10"/>
<path d="M51.0427 62.7494C51.0427 62.7494 58.351 64.9296 64.3517 58.7115" stroke="#612525" stroke-width="0.9662" stroke-miterlimit="10"/>
<path d="M51.5815 67.2711C51.5815 67.2711 55.5052 65.6556 58.3518 67.2711" stroke="#612525" stroke-width="0.9662" stroke-miterlimit="10"/>
<path d="M57.2739 45.0643C58.5815 41.8343 64.2748 39.0076 67.1983 44.0952" stroke="#312A45" stroke-width="2.1074" stroke-miterlimit="10" stroke-linecap="round" stroke-linejoin="round"/>
<path d="M45.9653 45.9527C47.3497 42.642 51.4271 43.3692 52.8893 45.5494" stroke="#312A45" stroke-width="2.1074" stroke-miterlimit="10" stroke-linecap="round" stroke-linejoin="round"/>
<path d="M86.9094 56.1046C85.4299 59.6117 82.0686 61.4501 79.4009 60.2103C76.7333 58.9705 75.7695 55.1227 77.248 51.6157C78.7264 48.1086 82.0888 46.2702 84.7565 47.5099C87.4251 48.7497 88.3888 52.5975 86.9094 56.1046Z" fill="#E06F6F"/>
<path d="M78.5586 54.6207C79.4819 50.9597 84.713 48.4717 85.2257 53.8618" stroke="#9E3838" stroke-width="0.9662" stroke-miterlimit="10"/>
<path d="M42.2558 60.5978C42.2558 60.5978 39.1897 63.9138 40.1787 71.1021C41.1677 78.2903 48.0927 83.5626 59.4308 79.8878C70.7689 76.2141 77.8769 65.3871 78.1277 59.2986L74.3456 58.2424C74.3456 58.2424 64.6822 71.5011 59.6593 72.38C54.6364 73.2589 54.6708 69.6659 54.6708 69.6659H51.5815C51.5815 69.6659 51.8222 73.6581 47.2564 72.8588C42.6906 72.0595 41.3649 66.1471 42.2558 60.5978Z" fill="#312A45"/>
<path d="M57.6975 17.5873C57.6975 17.5873 49.7673 16.8687 42.6906 24.6556C35.6139 32.4425 38.1248 43.1855 38.1248 43.1855C38.1248 43.1855 35.8424 46.8741 36.8689 50.741C37.8963 54.6079 43.3044 56.784 43.3044 56.784L43.6038 54.6186L41.8907 42.5062C41.8907 42.5062 48.7753 38.1744 52.0679 33.1515C52.0679 33.1515 61.2298 37.8336 67.1981 39.2709C73.1655 40.7081 74.65 40.2294 74.65 40.2294C74.65 40.2294 74.1939 45.9804 74.65 49.4545C75.1071 52.9287 76.5552 53.3798 76.5552 53.3798C76.5552 53.3798 78.8932 46.9537 83.734 47.1862C83.734 47.1862 83.4387 31.0647 77.446 24.0559C71.4534 17.0481 60.7514 17.375 57.6975 17.5873Z" fill="#312A45"/>
</g>
</g>
<defs>
<clipPath id="clip0_726_4209">
<rect width="125" height="125" fill="white"/>
</clipPath>
</defs>
</svg>
