<svg width="125" height="125" viewBox="0 0 125 125" fill="none" xmlns="http://www.w3.org/2000/svg">
<g clip-path="url(#clip0_726_4211)">
<path d="M62.5 125C97.0178 125 125 97.0178 125 62.5C125 27.9822 97.0178 0 62.5 0C27.9822 0 0 27.9822 0 62.5C0 97.0178 27.9822 125 62.5 125Z" fill="#3C81F5" fill-opacity="0.8"/>
<mask id="mask0_726_4211" style="mask-type:luminance" maskUnits="userSpaceOnUse" x="0" y="0" width="125" height="125">
<path d="M62.5 125C97.0178 125 125 97.0178 125 62.5C125 27.9822 97.0178 0 62.5 0C27.9822 0 0 27.9822 0 62.5C0 97.0178 27.9822 125 62.5 125Z" fill="white"/>
</mask>
<g mask="url(#mask0_726_4211)">
<path d="M12.9999 119.829L60.0629 128.302L112.803 119.829C112.803 119.829 110.436 95.8078 99.6088 88.0232C99.0739 87.6382 98.5155 87.2601 97.9492 86.8986C87.1374 79.9555 71.8208 77.2584 71.8208 77.2584L49.7494 78.194C49.7494 78.194 38.9611 80.1681 30.1476 85.341C29.2591 85.868 28.3862 86.4177 27.5525 87.0075C18.4176 93.4418 12.9999 119.829 12.9999 119.829Z" fill="#4D7D80"/>
<path d="M67.5351 64.9456C67.5351 64.9456 68.1475 74.3819 72.9545 70.3014C76.4931 67.2968 73.8379 64.794 77.4906 61.5359C78.9803 60.2074 83.4423 57.8222 82.1826 52.9873C80.9229 48.1525 77.8373 47.7439 79.9159 45.5512C81.9953 43.3585 85.5531 37.9879 79.0142 33.0589C72.4762 28.1308 79.1162 22.5049 70.8184 19.8784C62.5207 17.251 58.9804 20.6276 52.1331 17.1944C45.2859 13.7612 38.8699 12.6679 34.414 15.5017C28.3194 19.3775 34.6814 32.4395 39.721 32.761C44.7623 33.0833 67.5351 64.9456 67.5351 64.9456Z" fill="#302922"/>
<path d="M49.5169 72.6273L49.753 78.1957C50.4264 78.694 51.105 79.1243 51.7828 79.4928C61.6973 84.8905 71.8245 77.26 71.8245 77.26L71.0065 57.9536L52.0798 70.8771L49.5169 72.6273Z" fill="#9B6446"/>
<path d="M49.517 72.6273L49.7531 78.1957C50.4265 78.694 51.1052 79.1243 51.7829 79.4928C59.8776 75.8854 65.5044 66.9927 65.5044 66.9927L52.08 70.8771L49.517 72.6273Z" fill="#302922"/>
<path d="M41.5132 48.2448C41.5132 48.2448 38.1924 44.6426 36.5633 48.4538C34.9343 52.266 36.6295 59.7709 41.3895 58.3292L41.5132 48.2448Z" fill="#7C4E37"/>
<path d="M37.9247 30.9524C37.9247 30.9524 34.3085 32.409 36.0648 36.5234C37.8219 40.6378 37.6964 41.4907 37.2347 44.0649C36.773 46.6392 38.9056 48.6385 39.6382 48.3536C40.37 48.0696 46.6327 28.8146 37.9247 30.9524Z" fill="#302922"/>
<path d="M38.6958 61.4897C38.6958 61.4897 39.1662 73.0029 51.1411 72.4697C63.041 71.9435 70.755 62.2546 71.1584 61.8034C71.1653 61.7955 71.1706 61.792 71.1706 61.792L71.1984 59.3668L71.343 46.7795L71.4214 40.0516C71.4214 40.0516 72.4294 27.9008 60.85 26.1829C52.3894 24.9276 44.5787 26.6542 40.7927 31.2007C40.6698 31.3471 40.5522 31.4978 40.4416 31.6511C39.256 33.2427 38.5399 35.1531 38.4205 37.3754L38.5599 49.4478L38.5939 52.4063L38.6958 61.4897Z" fill="#9B6446"/>
<path d="M47.7278 58.7211C48.2549 58.7454 48.8455 58.7019 49.5023 58.559C52.9042 57.8185 55.1683 54.7791 55.2624 54.6493C55.407 54.4524 55.3652 54.1745 55.1674 54.0299C54.9706 53.8844 54.6935 53.9271 54.548 54.124C54.5271 54.1527 52.3815 57.0241 49.3133 57.6922C46.2747 58.3534 44.9637 56.5554 44.9506 56.5371C44.8086 56.3367 44.5324 56.2897 44.3329 56.4308C44.1326 56.5719 44.0855 56.849 44.2267 57.0484C44.2815 57.1251 45.3635 58.6113 47.7278 58.7211Z" fill="#302922"/>
<path d="M47.2445 61.3399C47.018 61.2171 46.883 61.1213 46.8612 61.1056C46.5981 60.9157 46.5389 60.5498 46.7288 60.2867C46.9178 60.0245 47.2819 59.9618 47.5459 60.1534C47.6234 60.2083 49.3596 61.4087 51.2683 60.4261C51.5567 60.278 51.9104 60.3912 52.0585 60.6787C52.2066 60.9671 52.0933 61.3199 51.8058 61.4689C49.8266 62.4872 48.012 61.7572 47.2445 61.3399Z" fill="#7C4E37"/>
<path d="M46.734 53.3036C47.8099 53.1163 48.9868 52.6894 49.6454 52.428C49.8885 52.3313 50.0069 52.0569 49.9111 51.8139C49.8144 51.57 49.5365 51.4506 49.297 51.5482C47.5146 52.2547 45.5684 52.6554 45.2914 52.3732C45.294 52.3732 45.2888 52.3331 45.3071 52.2573C46.2122 48.277 48.2481 47.797 48.269 47.7927C48.4929 47.7447 48.6567 47.5426 48.6497 47.3144L48.5356 43.6242C48.5277 43.3629 48.3091 43.1581 48.0477 43.166C47.7934 43.1738 47.5808 43.3925 47.5895 43.6538L47.6923 46.9947C46.9126 47.3275 45.2008 48.4504 44.3837 52.0482C44.2521 52.6276 44.5109 52.9516 44.6764 53.0936C45.0928 53.449 45.882 53.4525 46.734 53.3036Z" fill="#302922"/>
<path d="M61.0327 36.723C60.8376 38.1883 59.5065 39.2284 58.0377 39.0594C57.1805 38.961 56.1882 38.9087 55.1821 38.9871C53.7551 39.0978 52.5242 38.0001 52.4902 36.5697C52.4902 36.5697 57.6875 34.4746 61.0327 36.723Z" fill="#302922"/>
<path d="M39.4691 38.0845C39.6756 39.5097 40.9771 40.5028 42.3979 40.3155C43.2273 40.2057 44.1873 40.1395 45.163 40.1996C46.5463 40.285 47.7259 39.1952 47.7424 37.7996C47.7424 37.7996 42.6828 35.8395 39.4691 38.0845Z" fill="#302922"/>
<path d="M40.4397 31.6519C42.29 30.9071 43.6734 31.4681 46.6545 32.6302C50.9649 34.3089 55.6247 32.4368 59.7156 30.1222C63.8066 27.8075 66.4409 30.6754 65.0985 32.6868C63.7578 34.6983 63.979 36.2716 65.6638 38.6925C67.3487 41.1117 62.83 42.4629 65.4365 44.3071C66.5341 45.0842 66.5228 46.3142 66.1421 47.4772C65.7266 48.7456 66.8765 49.9766 68.1771 49.6769C69.5248 49.2735 71.342 46.7786 71.342 46.7786L74.9956 38.1463C74.9956 38.1463 71.8133 26.3457 60.2331 24.6287C51.7725 23.3734 43.9618 25.1 40.1757 29.6465C40.0538 29.7946 40.5512 31.4986 40.4397 31.6519Z" fill="#302922"/>
<path d="M55.3539 45.572C55.4026 46.7237 55.9645 47.634 56.6083 47.607C57.2521 47.58 57.7356 46.6244 57.6868 45.4727C57.638 44.3211 57.0761 43.4107 56.4323 43.4377C55.7877 43.4656 55.3051 44.4204 55.3539 45.572Z" fill="#302922"/>
<path d="M43.9643 45.8569C44.0131 47.0077 44.575 47.9189 45.2188 47.8919C45.8626 47.8649 46.3452 46.9093 46.2973 45.7585C46.2485 44.6068 45.6866 43.6965 45.0428 43.7235C44.3981 43.7505 43.9155 44.7053 43.9643 45.8569Z" fill="#302922"/>
<path d="M67.2112 57.2916C67.2713 57.4171 68.9352 60.8677 71.1575 61.8042C71.1644 61.7972 71.1688 61.792 71.1688 61.792L71.1958 59.3676C71.1958 59.3676 69.2923 59.1245 67.2112 57.2916Z" fill="#302922"/>
<path d="M68.9811 49.2064C68.9811 49.2064 73.322 42.8287 76.8998 47.5443C79.8487 51.4305 75.0364 62.0864 69.3844 58.7446L68.9811 49.2064Z" fill="#9B6446"/>
<path d="M69.9351 56.8569C69.9177 56.8578 69.9002 56.8578 69.8828 56.8561C69.6215 56.8386 69.4237 56.613 69.4411 56.3517C69.794 51.069 74.1419 49.0601 74.3265 48.9774C74.5661 48.8702 74.8457 48.9774 74.9529 49.2161C75.0601 49.4548 74.9538 49.7344 74.7151 49.8424C74.5513 49.9165 70.7008 51.7137 70.3872 56.4153C70.3715 56.6583 70.1738 56.8465 69.9351 56.8569Z" fill="#302922"/>
<path d="M74.2333 53.7984C74.1287 53.8027 74.0216 53.7731 73.931 53.7052C73.505 53.3889 72.2218 52.6214 71.4134 52.8654C71.1625 52.9412 70.8976 52.7992 70.8227 52.5483C70.7469 52.2974 70.8889 52.0334 71.1398 51.9576C72.5467 51.5334 74.3021 52.7992 74.4972 52.9455C74.7072 53.1015 74.7499 53.3985 74.5939 53.6085C74.5051 53.7269 74.3709 53.7932 74.2333 53.7984Z" fill="#302922"/>
<path d="M71.6703 73.6344C71.6703 73.6344 68.231 79.6915 58.2903 81.4242L64.9808 89.9807L77.3555 78.5094L71.6703 73.6344Z" fill="#D1932A"/>
<path d="M49.5816 74.1439C49.5816 74.1439 49.3612 78.68 56.0159 81.4241L49.5807 88.5484L44.4078 79.4928L49.5816 74.1439Z" fill="#D1932A"/>
<path d="M83.979 119.829H112.804C112.804 119.829 110.438 95.8078 99.61 88.0232C99.0751 87.6382 98.5167 87.2601 97.9505 86.8986C94.059 90.3509 83.2237 101.643 83.979 119.829Z" fill="#333E67"/>
<path d="M23.199 119.829C22.8296 103.843 27.4999 91.1924 30.1499 85.3427C29.2613 85.8697 28.3884 86.4194 27.5547 87.0092C18.4181 93.4409 13.0004 119.829 13.0004 119.829H23.199Z" fill="#333E67"/>
</g>
</g>
<defs>
<clipPath id="clip0_726_4211">
<rect width="125" height="125" fill="white"/>
</clipPath>
</defs>
</svg>
