<svg width="125" height="125" viewBox="0 0 125 125" fill="none" xmlns="http://www.w3.org/2000/svg">
<g clip-path="url(#clip0_726_4207)">
<path d="M62.5 125C97.0178 125 125 97.0178 125 62.5C125 27.9822 97.0178 0 62.5 0C27.9822 0 0 27.9822 0 62.5C0 97.0178 27.9822 125 62.5 125Z" fill="#3C81F5" fill-opacity="0.8"/>
<mask id="mask0_726_4207" style="mask-type:luminance" maskUnits="userSpaceOnUse" x="0" y="0" width="125" height="125">
<path d="M62.5 125C97.0178 125 125 97.0178 125 62.5C125 27.9822 97.0178 0 62.5 0C27.9822 0 0 27.9822 0 62.5C0 97.0178 27.9822 125 62.5 125Z" fill="white"/>
</mask>
<g mask="url(#mask0_726_4207)">
<path d="M84.9224 100.961C84.9224 100.961 93.2399 101.977 97.8431 104.762C102.446 107.547 105.219 115.154 105.219 115.154C105.219 115.154 86.8862 129.808 62.7215 128.831C38.5568 127.854 22.0229 108.352 22.0229 108.352C22.0229 108.352 25.8536 101.089 32.5308 97.8764C36.8488 95.7991 50.0617 95.6982 50.0617 95.6982L84.9224 100.961Z" fill="#4D7D80"/>
<path d="M38.3635 35.6948L41.1738 56.1057C41.1738 56.1057 31.9603 79.4589 50.543 79.6224L46.7316 99.0557C46.2826 101.344 47.2058 103.687 49.0696 104.966C50.8251 106.172 53.5585 107.404 57.7268 107.978C64.4991 108.91 72.5345 104.954 76.6138 102.589C78.2551 101.638 79.2957 99.8518 79.3321 97.8838L80.0905 56.1046L69.7505 29.187L38.3635 35.6948Z" fill="#E06F6F"/>
<path d="M50.5432 79.6225C57.0496 79.4038 64.9615 77.5463 69.4383 70.3336C74.0658 71.791 71.6175 81.1945 66.4814 83.4162C65.0707 84.0265 63.8573 85.0137 62.8602 86.2269C57.3378 92.9428 48.1375 91.892 48.1375 91.892L50.5432 79.6225Z" fill="#9E3838"/>
<path d="M49.6592 50.6519C49.6592 52.123 48.9776 53.3151 48.1362 53.3151C47.2959 53.3151 46.6133 52.123 46.6133 50.6519C46.6133 49.1807 47.2949 47.9886 48.1362 47.9886C48.9776 47.9876 49.6592 49.1807 49.6592 50.6519Z" fill="#2A2A2A"/>
<path d="M62.0986 53.1771C62.9397 53.1771 63.6215 51.9848 63.6215 50.5139C63.6215 49.0431 62.9397 47.8507 62.0986 47.8507C61.2575 47.8507 60.5757 49.0431 60.5757 50.5139C60.5757 51.9848 61.2575 53.1771 62.0986 53.1771Z" fill="#2A2A2A"/>
<path d="M52.5736 48.4366C52.873 50.6349 50.9334 55.3829 49.724 57.9983C49.4054 58.6883 49.9687 59.461 50.6867 59.3241L54.9167 58.5174" stroke="#612525" stroke-width="0.9662" stroke-miterlimit="10"/>
<path d="M48.5913 63.3958C48.5913 63.3958 56.0088 65.609 62.0985 59.2986" stroke="#612525" stroke-width="0.9662" stroke-miterlimit="10"/>
<path d="M49.1375 67.9845C49.1375 67.9845 53.1197 66.3456 56.0079 67.9845" stroke="#612525" stroke-width="0.9662" stroke-miterlimit="10"/>
<path d="M54.9155 45.4476C56.2433 42.1698 62.0205 39.3006 64.9875 44.4646" stroke="#312A45" stroke-width="2.1074" stroke-miterlimit="10" stroke-linecap="round"/>
<path d="M43.438 46.3487C44.8436 42.9891 48.9816 43.7258 50.4651 45.9389" stroke="#312A45" stroke-width="2.1074" stroke-miterlimit="10" stroke-linecap="round"/>
<path d="M75.2386 51.6496C75.2386 51.6496 67.9617 44.9656 67.3549 34.7809C62.503 43.056 49.7684 36.372 49.7684 36.372C49.7684 36.372 42.5764 40.9565 38.3625 35.6937C39.0411 30.4915 72.5093 18.8663 72.5093 18.8663C72.5093 18.8663 86.6121 22.7545 84.4895 35.4846C82.3669 48.2158 80.0895 56.1035 80.0895 56.1035L75.2386 51.6496Z" fill="#312A45"/>
<path d="M84.992 56.6523C83.4913 60.2114 80.0793 62.0774 77.3712 60.8196C74.6641 59.5617 73.6852 55.6566 75.1869 52.0965C76.6876 48.5374 80.0995 46.6713 82.8077 47.9292C85.5148 49.187 86.4937 53.0921 84.992 56.6523Z" fill="#E06F6F"/>
<path d="M76.5168 55.1451C77.4533 51.43 82.7633 48.9048 83.2831 54.3745" stroke="#9E3838" stroke-width="0.9662" stroke-miterlimit="10"/>
<path d="M42.0569 29.188C42.0569 29.188 42.3866 26.0673 46.9523 18.0352C51.5181 10.0031 65.4308 8.39713 72.8038 11.9021C80.1778 15.407 86.7216 21.7344 85.6972 30.7409C84.6718 39.7464 85.6972 41.6358 85.6972 41.6358L42.0569 29.188Z" fill="#8F3935"/>
<path d="M80.0897 79.114C80.0897 79.114 61.5536 95.0636 60.0134 108.119C60.0134 108.119 64.9422 109.891 76.4209 107.154C87.8985 104.415 89.8098 101.853 89.8098 101.853C89.8098 101.853 94.7689 83.3524 80.0897 79.114Z" fill="#312A45"/>
<path d="M49.4996 83.605C49.4996 83.605 55.0797 96.6971 54.1159 107.237C54.1159 107.237 47.83 108.139 42.8213 101.019C37.8137 93.9001 44.7002 83.605 49.4996 83.605Z" fill="#312A45"/>
<path d="M38.3636 30.0468C38.3636 30.0468 40.8786 24.5718 53.866 26.1088C74.4833 28.5491 86.1591 38.3283 87.5506 41.6348C88.942 44.9413 84.9588 50.0575 84.9588 50.0575C84.9588 50.0575 48.7926 30.3323 39.1817 41.6348C39.1817 41.6348 34.3217 36.7277 38.3636 30.0468Z" fill="#A54646"/>
<path d="M43.7768 30.1561L43.438 35.0484C43.438 35.0484 49.2911 34.1727 57.6379 35.4868L58.6815 30.5213C58.6815 30.5213 50.4924 27.2498 43.7768 30.1561Z" fill="#D1932A"/>
</g>
</g>
<defs>
<clipPath id="clip0_726_4207">
<rect width="125" height="125" fill="white"/>
</clipPath>
</defs>
</svg>
