<svg width="100" height="100" viewBox="0 0 100 100" fill="none" xmlns="http://www.w3.org/2000/svg">
<path d="M32.3126 55.75V84.2083C32.3126 85.9101 31.6365 87.5422 30.4332 88.7456C29.2298 89.949 27.5977 90.625 25.8959 90.625H18.3542C17.5081 90.6305 16.6692 90.4686 15.8859 90.1486C15.1025 89.8286 14.3903 89.3568 13.79 88.7604C13.1897 88.164 12.7134 87.4548 12.3883 86.6736C12.0632 85.8923 11.8959 85.0545 11.8959 84.2083V55.75C11.8904 54.9003 12.0536 54.058 12.3762 53.272C12.6988 52.4859 13.1743 51.7717 13.7752 51.1709C14.376 50.5701 15.0901 50.0946 15.8762 49.772C16.6623 49.4494 17.5046 49.2861 18.3542 49.2917H25.8959C26.7421 49.2917 27.5799 49.459 28.3611 49.7841C29.1423 50.1091 29.8516 50.5855 30.448 51.1858C31.0443 51.786 31.5161 52.4983 31.8361 53.2817C32.1561 54.065 32.318 54.9039 32.3126 55.75ZM60.2292 15.8333V84.2083C60.2292 85.0545 60.0619 85.8923 59.7368 86.6736C59.4118 87.4548 58.9354 88.164 58.3351 88.7604C57.7349 89.3568 57.0226 89.8286 56.2392 90.1486C55.4559 90.4686 54.617 90.6305 53.7709 90.625H46.2292C44.5236 90.625 42.8871 89.9503 41.6772 88.7482C40.4672 87.546 39.7819 85.914 39.7709 84.2083V15.8333C39.7818 14.1238 40.4657 12.4875 41.6746 11.2787C42.8834 10.0699 44.5197 9.38592 46.2292 9.375H53.7709C55.4837 9.375 57.1264 10.0554 58.3376 11.2666C59.5488 12.4778 60.2292 14.1205 60.2292 15.8333ZM88.1042 37.4167V84.2083C88.1042 85.9101 87.4282 87.5422 86.2248 88.7456C85.0215 89.949 83.3894 90.625 81.6876 90.625H74.1459C73.2997 90.6305 72.4609 90.4686 71.6775 90.1486C70.8942 89.8286 70.1819 89.3568 69.5817 88.7604C68.9814 88.164 68.505 87.4548 68.1799 86.6736C67.8549 85.8923 67.6875 85.0545 67.6876 84.2083V37.4167C67.6876 36.5685 67.8546 35.7287 68.1792 34.9452C68.5037 34.1616 68.9794 33.4496 69.5792 32.8499C70.1789 32.2502 70.8908 31.7745 71.6744 31.4499C72.458 31.1254 73.2978 30.9583 74.1459 30.9583H81.8542C83.5307 31.0124 85.1204 31.7167 86.2869 32.922C87.4533 34.1274 88.1051 35.7393 88.1042 37.4167Z" fill="#3A81F6"/>
</svg>
