<svg width="100" height="100" viewBox="0 0 100 100" fill="none" xmlns="http://www.w3.org/2000/svg">
<path d="M50 71.875C49.456 71.8749 48.9215 71.7329 48.4492 71.4629L21.0938 55.8281C20.8561 55.6909 20.5864 55.6187 20.3119 55.6188C20.0375 55.6189 19.7679 55.6913 19.5303 55.8287C19.2927 55.9661 19.0954 56.1637 18.9585 56.4015C18.8215 56.6394 18.7496 56.9091 18.75 57.1836V71.875C18.7495 72.4327 18.8984 72.9804 19.181 73.4613C19.4637 73.9421 19.8699 74.3385 20.3574 74.6094L48.4824 90.2344C48.9467 90.4923 49.4689 90.6276 50 90.6276C50.5311 90.6276 51.0533 90.4923 51.5176 90.2344L79.6426 74.6094C80.1301 74.3385 80.5363 73.9421 80.819 73.4613C81.1016 72.9804 81.2505 72.4327 81.25 71.875V57.1836C81.2504 56.9091 81.1785 56.6394 81.0415 56.4015C80.9046 56.1637 80.7073 55.9661 80.4698 55.8287C80.2322 55.6913 79.9625 55.6189 79.6881 55.6188C79.4136 55.6187 79.1439 55.6909 78.9062 55.8281L51.5508 71.4629C51.0785 71.7329 50.544 71.8749 50 71.875Z" fill="#3A81F6"/>
<path d="M96.8593 37.207V37.1855C96.8088 36.6902 96.6406 36.2141 96.3688 35.7969C96.097 35.3797 95.7295 35.0335 95.2968 34.7871L51.5468 9.78706C51.0746 9.51712 50.54 9.37512 49.996 9.37512C49.4521 9.37512 48.9175 9.51712 48.4453 9.78706L4.69526 34.7871C4.21711 35.0604 3.8197 35.4553 3.54331 35.9318C3.26691 36.4082 3.12134 36.9492 3.12134 37.5C3.12134 38.0507 3.26691 38.5917 3.54331 39.0682C3.8197 39.5446 4.21711 39.9395 4.69526 40.2128L48.4453 65.2128C48.9175 65.4828 49.4521 65.6248 49.996 65.6248C50.54 65.6248 51.0746 65.4828 51.5468 65.2128L90.039 43.2187C90.0985 43.1844 90.166 43.1663 90.2347 43.1664C90.3034 43.1664 90.3709 43.1846 90.4303 43.2191C90.4897 43.2536 90.539 43.3031 90.5732 43.3627C90.6074 43.4223 90.6252 43.4898 90.6249 43.5585V71.7871C90.6249 73.4687 91.9179 74.9121 93.5996 74.9961C94.0221 75.0164 94.4443 74.9508 94.8408 74.8031C95.2372 74.6554 95.5995 74.4288 95.9057 74.137C96.212 73.8452 96.4558 73.4942 96.6224 73.1054C96.789 72.7166 96.8749 72.298 96.8749 71.875V37.5C96.8746 37.4021 96.8694 37.3043 96.8593 37.207Z" fill="#3A81F6"/>
</svg>
