<svg width="100" height="100" viewBox="0 0 100 100" fill="none" xmlns="http://www.w3.org/2000/svg">
<path fill-rule="evenodd" clip-rule="evenodd" d="M49.6084 8.30833C54.1688 8.25068 58.6926 9.12951 62.8997 10.8904C67.1069 12.6514 70.9079 15.257 74.0676 18.5459C77.2273 21.8349 79.6784 25.7373 81.2694 30.0117C82.8603 34.286 83.5571 38.8414 83.3167 43.3958C83.0023 49.2724 81.1378 54.9609 77.9125 59.8833C77.7631 60.1882 77.577 60.4736 77.3584 60.7333L76.9084 61.2708C76.1639 62.2847 75.3681 63.2555 74.5209 64.1833L53.2209 90.1167C52.83 90.5922 52.3386 90.9752 51.7821 91.2381C51.2255 91.5011 50.6177 91.6374 50.0021 91.6374C49.3866 91.6374 48.7787 91.5011 48.2222 91.2381C47.6656 90.9752 47.1742 90.5922 46.7834 90.1167L24.925 63.5833L24.9167 63.575C24.4804 63.0531 24.0512 62.5253 23.6292 61.9917L23.075 61.3125C22.8613 61.0547 22.6794 60.7721 22.5334 60.4708C19.1193 55.4954 17.1207 49.6862 16.7511 43.6634C16.3814 37.6406 17.6546 31.6305 20.4346 26.275C23.2146 20.9194 27.3971 16.4196 32.5354 13.2559C37.6736 10.0922 43.5747 8.38361 49.6084 8.31249V8.30833ZM62.5 41.6542C62.5304 43.3146 62.2295 44.9645 61.615 46.5073C61.0006 48.0502 60.0848 49.4552 58.9213 50.6401C57.7577 51.8251 56.3697 52.7664 54.8383 53.4089C53.3069 54.0514 51.6628 54.3824 50.0021 54.3824C48.3414 54.3824 46.6973 54.0514 45.1659 53.4089C43.6345 52.7664 42.2465 51.8251 41.083 50.6401C39.9194 49.4552 39.0037 48.0502 38.3892 46.5073C37.7747 44.9645 37.4739 43.3146 37.5042 41.6542C37.564 38.379 38.907 35.2582 41.2443 32.9632C43.5816 30.6682 46.7264 29.3824 50.0021 29.3824C53.2778 29.3824 56.4226 30.6682 58.7599 32.9632C61.0972 35.2582 62.4402 38.379 62.5 41.6542Z" fill="#3A81F6"/>
</svg>
